<svg xmlns="http://www.w3.org/2000/svg" width="64" height="64" viewBox="0 0 64 64">
  <rect width="64" height="64" rx="14" fill="#0B1E3B"/>
  <g>
    <!-- House body -->
    <path d="M24 34h22v15a2 2 0 0 1-2 2H26a2 2 0 0 1-2-2V34Z" fill="#fff"/>
    <!-- Roof -->
    <path d="M20 35 35 22l15 13a1.4 1.4 0 0 1-.9 2.5H20.9A1.4 1.4 0 0 1 20 35Z" fill="#fff"/>
    <!-- Window -->
    <rect x="32" y="38" width="8" height="8" rx="1" fill="#0B1E3B"/>
    <!-- Box -->
    <path d="M9 40h15v11a2 2 0 0 1-2 2H11a2 2 0 0 1-2-2V40Z" fill="#F58220"/>
    <path d="M9 40h15l-2.5-4h-10L9 40Z" fill="#D96D11"/>
    <path d="M16.5 36v17" stroke="#0B1E3B" stroke-width="1.3"/>
    <!-- Broom -->
    <path d="M50 16 41 30" stroke="#F58220" stroke-width="2.4" stroke-linecap="round"/>
    <path d="m38 28 6 4-2.6 3.6c-.4.6-1.2.6-1.7.2l-3.8-3.6c-.5-.4-.4-1.2.1-1.6L38 28Z" fill="#F58220"/>
  </g>
</svg>
